<svg xmlns="http://www.w3.org/2000/svg" width="64" height="64"><g transform="translate(-101 -1204.362)"><path fill="#f0edf2" fill-rule="evenodd" d="M162.502 1254.953v3.455a3.435 3.435 0 0 1-3.43 3.454H106.93c-1.9 0-3.459-1.54-3.43-3.454l.051-3.455"/><path fill="none" stroke="#b09aad" stroke-linejoin="round" d="M162.502 1254.953v3.455a3.435 3.435 0 0 1-3.43 3.454H106.93c-1.9 0-3.459-1.54-3.43-3.454l.051-3.455"/><path fill="#fff" d="M160.47 1236.989a2.748 2.748 0 0 0-2.744-2.764h-49.397a2.748 2.748 0 0 0-2.744 2.764l-2.031 17.964c0 2.073 1.136 4.146 3.79 4.146H158.3c2.656 0 4.202-2.073 4.202-4.146z"/><path fill="#dfd6de" fill-rule="evenodd" d="m153.355 1234.416 1.372 21.919H110.91l1.372-21.919"/><path fill="none" stroke="#b09aad" d="m108.528 1243.207-.411 4.146"/><ellipse cx="107.846" cy="1249.425" fill="#b09aad" rx=".686" ry=".691"/><path fill="none" stroke="#b09aad" stroke-linecap="round" stroke-linejoin="round" d="m153.355 1234.416 1.372 21.919H110.91l1.372-21.919"/><path fill="none" stroke="#b09aad" d="M160.47 1236.989a2.748 2.748 0 0 0-2.744-2.764h-49.397a2.748 2.748 0 0 0-2.744 2.764l-2.031 17.964c0 2.073 1.136 4.146 3.79 4.146H158.3c2.656 0 4.202-2.073 4.202-4.146z"/><ellipse cx="-24.877" cy="1260.453" fill="#dfd6de" stroke="#b09aad" stroke-width="1.007" rx="1.377" ry="1.397" transform="matrix(.99978 .02112 .1447 .98948 0 0)"/><rect width="27" height="38" x="119.5" y="1213.862" fill="#8d97b7" rx="1.5" ry="1.5"/><rect width="14.981" height="14.981" x="125.519" y="1219.862" fill="#d5eef2" stroke="#62355c" rx="7.491" ry="7.49"/><path fill="#fff" d="M146.5 1250.862v-35.9l-1.5-1.1v35c0 .831-.669 1.5-1.5 1.5h-24v1.5h25.719z"/><path fill="#8789a9" d="M119.5 1214.862v35.9l1.5 1.1v-35c0-.831.669-1.5 1.5-1.5h24v-1.5h-25.719z"/><rect width="5.993" height="5.992" x="130.013" y="1224.356" fill="#f37865" stroke="#62355c" rx="2.996" ry="2.996"/><path fill="#f37865" stroke="#62355c" d="M132.635 1230.368a5.67 5.67 0 0 0-1.17.187c-1.435.385-2.592 1.3-3.371 2.434 1.315 1.148 3.025 1.873 4.915 1.873 1.89 0 3.6-.726 4.916-1.873-1.174-1.723-3.173-2.748-5.29-2.621z"/><rect width="21" height="3" x="122.5" y="1237.862" fill="#d5eef2" rx="0" ry="0"/><rect width="21" height="3" x="122.5" y="1243.862" fill="#d5eef2" rx="0" ry="0"/><rect width="27" height="38" x="119.5" y="1213.862" fill="none" stroke="#62355c" stroke-linecap="round" stroke-linejoin="round" stroke-miterlimit="2.824" rx="1.5" ry="1.5"/><circle cx="146.5" cy="1213.862" r="3" fill="#f37865"/><path fill="none" stroke="#62355c" stroke-linecap="square" stroke-linejoin="round" d="m147.207 1213.155-1.414 1.414"/><path fill="#d6685f" d="M146 1210.862a3 3 0 0 0-3 3 3 3 0 0 0 3 3 3 3 0 0 0 .756-.098 3 3 0 0 1-2.256-2.902 3 3 0 0 1 2.244-2.902 3 3 0 0 0-.744-.098z"/><path fill="#fafcfe" d="M147 1210.862a3 3 0 0 1 3 3 3 3 0 0 1-3 3 3 3 0 0 1-.756-.098 3 3 0 0 0 2.256-2.902 3 3 0 0 0-2.244-2.902 3 3 0 0 1 .744-.098z"/><path fill="none" stroke="#62355c" stroke-linecap="square" stroke-linejoin="round" d="m147.207 1214.57-1.414-1.415"/><path fill="none" stroke="#fafcfe" stroke-linecap="round" stroke-linejoin="round" stroke-miterlimit="2.824" d="M134.433 1222.04a5.5 5.5 0 0 1 3.889 3.889"/><circle cx="146.5" cy="1213.862" r="3" fill="none" stroke="#62355c" stroke-linecap="round" stroke-linejoin="round" stroke-miterlimit="2.824"/><rect width="21" height="3" x="122.5" y="1243.862" fill="none" stroke="#62355c" stroke-linecap="square" stroke-linejoin="round" stroke-miterlimit="2.824" rx="0" ry="0"/><rect width="21" height="3" x="122.5" y="1237.862" fill="none" stroke="#62355c" stroke-linecap="square" stroke-linejoin="round" stroke-miterlimit="2.824" rx="0" ry="0"/></g></svg>